<?xml version="1.0" encoding="UTF-8"?>
<svg width="160px" height="46px" viewBox="0 0 160 46" version="1.1" xmlns="http://www.w3.org/2000/svg" xmlns:xlink="http://www.w3.org/1999/xlink">
    <title>AACA2647-3C9C-4FC7-AD89-4B40E95DBD89</title>
    <defs>
        <polygon id="path-1" points="0 0 32.8039845 0 32.8039845 30.4175992 0 30.4175992"></polygon>
        <polygon id="path-3" points="0 0 14.9571415 0 14.9571415 21.280368 0 21.280368"></polygon>
    </defs>
    <g id="UI" stroke="none" stroke-width="1" fill="none" fill-rule="evenodd">
        <g id="Register-1" transform="translate(-108.000000, -82.000000)">
            <g id="Fiado_LogoPrimary-Copy-3" transform="translate(108.000000, 82.000000)">
                <polygon id="Fill-1" fill="#F20C90" points="7.70576584 7.12674863 0 45.5609323 8.97145478 45.5609323 11.7786114 31.5595139 29.5567455 31.5595139 31.0428687 24.422194 13.1546747 24.422194 15.190783 14.2653233 40.8023525 14.2653233 42.2881612 7.12674863"></polygon>
                <polygon id="Fill-2" fill="#FE6E0D" points="37.8410491 26.6468307 48.4759808 16.0934596 42.6012974 45.560901 34.0700822 45.560901"></polygon>
                <g id="Group-13" transform="translate(34.676512, 0.000000)">
                    <path d="M36.4346093,37.6819623 C37.7556426,36.8588477 38.7826588,35.7145176 39.5169156,34.2502267 C40.250858,32.786877 40.6178292,31.1026916 40.6178292,29.1995527 C40.6178292,27.1863096 40.02099,25.5943482 38.828884,24.4220999 C37.636149,23.2511064 35.9755022,22.6648255 33.847887,22.6648255 C32.159568,22.6648255 30.6558352,23.0770102 29.3348018,23.9001248 C28.0137685,24.7244942 26.985809,25.8688243 26.2524955,27.3324877 C25.5176098,28.7967786 25.151582,30.4803366 25.151582,32.3837892 C25.151582,34.3970322 25.7474778,35.9889937 26.9405272,37.1603009 C28.1323187,38.3322354 29.79328,38.9172616 31.9212097,38.9172616 C33.6088998,38.9172616 35.1135759,38.5053906 36.4346093,37.6819623 L36.4346093,37.6819623 Z M51.8464554,16.0215626 L45.9566781,45.5608382 L37.8106726,45.5608382 L38.3612866,42.6510778 C35.9025482,44.883588 32.8755863,46 29.2797719,46 C26.9678849,46 24.8393263,45.4695553 22.8944105,44.4080386 C20.9494947,43.3468355 19.3998512,41.8188662 18.2435932,39.8235033 C17.0879642,37.8290815 16.5103069,35.4773702 16.5103069,32.7680558 C16.5103069,29.5101028 17.2341867,26.5730516 18.6844618,23.9553337 C20.1331646,21.3388706 22.1054382,19.2886125 24.600968,17.8061278 C27.0961833,16.3239568 29.8483099,15.5824008 32.8570334,15.5824008 C37.4065955,15.5824008 40.6178292,17.0651992 42.489162,20.0295411 L43.2598959,16.0215626 L51.8464554,16.0215626 Z" id="Fill-3" fill="#FE6E0D"></path>
                    <path d="M74.5219725,37.6819623 C75.8430058,36.8588477 76.870022,35.7145176 77.6042788,34.2502267 C78.3382212,32.786877 78.7051924,31.1026916 78.7051924,29.1995527 C78.7051924,27.1863096 78.1083532,25.5943482 76.9162472,24.4220999 C75.7235122,23.2511064 74.0628654,22.6648255 71.9352502,22.6648255 C70.2469312,22.6648255 68.7431984,23.0770102 67.422165,23.9001248 C66.1011317,24.7244942 65.0734866,25.8688243 64.3398587,27.3324877 C63.604973,28.7967786 63.2389452,30.4803366 63.2389452,32.3837892 C63.2389452,34.3970322 63.8351554,35.9889937 65.0278904,37.1603009 C66.2196819,38.3322354 67.8806432,38.9172616 70.0085729,38.9172616 C71.696263,38.9172616 73.201568,38.5053906 74.5219725,37.6819623 L74.5219725,37.6819623 Z M92.1350168,4.82042784 L83.9890113,45.5608382 L75.8430058,45.5608382 L76.4486498,42.5958689 C73.9524911,44.8657079 70.9252147,46 67.3671351,46 C65.0552481,46 62.9266895,45.4695553 60.9820881,44.4080386 C59.0368579,43.3468355 57.4872144,41.8188662 56.3309564,39.8235033 C55.1759563,37.8290815 54.5976701,35.4773702 54.5976701,32.7680558 C54.5976701,29.5101028 55.3215498,26.5730516 56.771825,23.9553337 C58.2205278,21.3388706 60.1928014,19.2886125 62.6886456,17.8061278 C65.1835465,16.3239568 67.9356731,15.5824008 70.9443966,15.5824008 C73.1091177,15.5824008 75.0078084,15.9491009 76.6410974,16.6803052 C78.2734431,17.4133917 79.5668042,18.4924749 80.5214953,19.919437 L83.5484572,4.82042784 L92.1350168,4.82042784 Z" id="Fill-5" fill="#FE6E0D"></path>
                    <g id="Group-9" transform="translate(92.519503, 15.582401)">
                        <mask id="mask-2" fill="white">
                            <use xlink:href="#path-1"></use>
                        </mask>
                        <g id="Clip-8"></g>
                        <path d="M19.9243024,22.0995615 C21.2453357,21.2764469 22.2723519,20.1321168 23.0066087,18.6678259 C23.7405511,17.2044762 24.1075222,15.5202908 24.1075222,13.6171519 C24.1075222,11.6039088 23.5201168,10.0119474 22.3462493,8.83969913 C21.1714384,7.66870563 19.5202253,7.08242466 17.39261,7.08242466 C15.704291,7.08242466 14.2005582,7.49460936 12.8795249,8.317724 C11.5584915,9.14209338 10.5308465,10.2864235 9.79721855,11.7500869 C9.06233282,13.2143778 8.69630501,14.8979358 8.69630501,16.8013884 C8.69630501,18.8146315 9.2922008,20.4065929 10.4849357,21.5779001 C11.6767273,22.7498346 13.338003,23.3348609 15.4659327,23.3348609 C17.1171458,23.3348609 18.603269,22.9229898 19.9243024,22.0995615 M7.07276414,28.7710562 C4.81590712,27.6725244 3.07287263,26.1269887 1.84366069,24.1316258 C0.614134286,22.1368903 0,19.821253 0,17.185655 C0,13.927702 0.770733813,11.0000614 2.31157252,8.40085105 C3.85304015,5.80226809 5.98002649,3.75295104 8.69630501,2.25164515 C11.4113257,0.750652946 14.475708,0 17.8878796,0 C20.8962886,0 23.5201168,0.548952217 25.7587353,1.64748403 C27.9964105,2.74538846 29.7303257,4.29217897 30.960481,6.28722817 C32.1890641,8.28259105 32.8041417,10.5972873 32.8041417,13.2316306 C32.8041417,16.4905246 32.0422127,19.4184789 30.5196125,22.0167482 C28.9966978,24.6168995 26.8681392,26.6665303 24.1351944,28.1662677 C21.4009919,29.6678873 18.3284337,30.4175992 14.9156332,30.4175992 C11.9437012,30.4175992 9.32930671,29.8689607 7.07276414,28.7710562" id="Fill-7" fill="#FE6E0D" mask="url(#mask-2)"></path>
                    </g>
                    <g id="Group-12">
                        <mask id="mask-4" fill="white">
                            <use xlink:href="#path-3"></use>
                        </mask>
                        <g id="Clip-11"></g>
                        <polygon id="Fill-10" fill="#F20C90" mask="url(#mask-4)" points="0 4.2804157 6.37561324 10.6404192 0 16.9997954 4.29107858 21.280368 14.9571415 10.6404192 4.29107858 -0.000156843491"></polygon>
                    </g>
                </g>
            </g>
        </g>
    </g>
</svg>